<?xml version="1.0" encoding="utf-8"?>
<!-- Generator: Adobe Illustrator 19.2.1, SVG Export Plug-In . SVG Version: 6.00 Build 0)  -->
<svg version="1.0" id="Cogs" xmlns="http://www.w3.org/2000/svg" xmlns:xlink="http://www.w3.org/1999/xlink" x="0px" y="0px"
	 viewBox="0 0 52 52" enable-background="new 0 0 52 52" xml:space="preserve">
<path d="M34.3,18.6c0.1,0.3,0.1,0.7-0.1,1c-0.2,0.3-0.4,0.5-0.8,0.7c-0.3,0.1-0.7,0.1-1-0.1c-0.3-0.2-0.5-0.4-0.7-0.8
	c-0.1-0.3-0.1-0.7,0.1-1c0.2-0.3,0.4-0.5,0.8-0.7c0.1,0,0.3-0.1,0.4-0.1c0.2,0,0.4,0.1,0.6,0.2C33.9,18,34.2,18.3,34.3,18.6z
	 M39.2,18.8c0.1,0.1,0.2,0.2,0.3,0.3c-0.1,0.1-0.2,0.2-0.3,0.3c-0.5,0.3-1,0.7-1.2,1.3c-0.2,0.6,0,1.2,0.1,1.8
	c0,0.1,0.1,0.3,0.1,0.4c-0.1,0-0.3,0-0.4,0c-0.6,0-1.2,0-1.8,0.4c-0.5,0.4-0.7,1-0.9,1.5c0,0.1-0.1,0.3-0.2,0.4
	c-0.1-0.1-0.3-0.3-0.4-0.3c-0.5-0.3-1-0.9-1.6-0.9c0,0,0,0,0,0c-0.6,0-1.2,0.5-1.7,0.8c-0.1,0.1-0.2,0.3-0.4,0.4
	c-0.1-0.1-0.1-0.3-0.1-0.4c-0.2-0.5-0.4-1.2-0.9-1.6c-0.5-0.4-1.2-0.4-1.7-0.4c-0.1,0-0.3,0-0.4,0c0-0.1,0.1-0.3,0.1-0.4
	c0.2-0.6,0.4-1.2,0.2-1.8s-0.7-1-1.2-1.4c-0.1-0.1-0.2-0.2-0.3-0.3c0.1-0.1,0.2-0.2,0.3-0.3c0.5-0.3,1-0.7,1.2-1.3
	c0.2-0.6,0-1.2-0.1-1.8c0-0.1-0.1-0.3-0.1-0.4c0.1,0,0.3,0,0.4,0c0.6,0,1.2,0,1.8-0.4c0.5-0.4,0.7-1,0.9-1.5c0-0.1,0.1-0.3,0.2-0.4
	c0.1,0.1,0.3,0.3,0.4,0.3c0.5,0.3,1,0.9,1.6,0.9c0,0,0,0,0,0c0.6,0,1.2-0.5,1.7-0.8c0.1-0.1,0.2-0.3,0.4-0.4
	c0.1,0.1,0.1,0.3,0.1,0.4c0.2,0.5,0.4,1.2,0.9,1.6c0.5,0.4,1.2,0.4,1.7,0.4c0.1,0,0.3,0,0.4,0c0,0.1-0.1,0.3-0.1,0.4
	c-0.2,0.6-0.4,1.2-0.2,1.8S38.8,18.5,39.2,18.8z M36.2,18c-0.3-0.9-0.8-1.5-1.6-2c-0.8-0.4-1.7-0.5-2.5-0.2c-0.9,0.3-1.5,0.8-2,1.6
	c-0.4,0.8-0.5,1.7-0.2,2.5c0.3,0.9,0.8,1.5,1.6,2c0.5,0.3,1,0.4,1.5,0.4c0.3,0,0.7,0,1-0.2c0.9-0.3,1.5-0.8,2-1.6
	C36.4,19.8,36.4,18.9,36.2,18z M50,26c0,13.3-10.7,24-24,24S2,39.3,2,26S12.7,2,26,2S50,12.7,50,26z M28.7,32.1
	c0-0.9-0.7-1.4-1.2-1.8c-0.2-0.1-0.4-0.3-0.5-0.4c0-0.1,0.1-0.5,0.2-0.6c0.2-0.7,0.5-1.5,0-2.2c-0.5-0.7-1.4-0.8-2.1-0.8
	c-0.2,0-0.5,0-0.6,0c-0.1-0.1-0.2-0.4-0.2-0.6c-0.2-0.6-0.5-1.5-1.4-1.8c-0.8-0.3-1.6,0.2-2.2,0.6c-0.2,0.1-0.4,0.3-0.5,0.3
	c-0.1-0.1-0.3-0.2-0.5-0.3c-0.6-0.4-1.3-0.9-2.2-0.7c-0.9,0.3-1.2,1.1-1.4,1.8c-0.1,0.2-0.2,0.4-0.2,0.6c-0.1,0-0.4,0-0.6,0
	c-0.7,0-1.6,0-2.1,0.7c-0.5,0.7-0.3,1.6-0.1,2.2c0.1,0.2,0.1,0.5,0.1,0.6c-0.1,0.1-0.3,0.3-0.5,0.4c-0.5,0.4-1.3,1-1.3,1.9
	c0,0.9,0.7,1.4,1.2,1.8c0.2,0.1,0.5,0.4,0.5,0.4c0,0.1-0.1,0.5-0.2,0.7c-0.2,0.7-0.5,1.5,0,2.2c0.5,0.7,1.4,0.8,2.1,0.8
	c0.2,0,0.5,0,0.6,0c0.1,0.1,0.2,0.4,0.2,0.6c0.2,0.6,0.5,1.5,1.4,1.8c0.8,0.3,1.6-0.2,2.2-0.6c0.2-0.1,0.4-0.3,0.5-0.3
	c0.1,0.1,0.3,0.2,0.5,0.3c0.5,0.3,1,0.7,1.7,0.7c0.2,0,0.3,0,0.5-0.1c0.9-0.3,1.2-1.1,1.4-1.8c0.1-0.2,0.2-0.4,0.2-0.6
	c0.1,0,0.4,0,0.6,0c0.7,0,1.6,0,2.1-0.7c0.5-0.7,0.3-1.6,0.1-2.2c-0.1-0.2-0.1-0.5-0.1-0.6c0.1-0.1,0.3-0.3,0.5-0.4
	C27.9,33.6,28.7,33,28.7,32.1z M41.7,19.1c0-0.9-0.7-1.4-1.2-1.8c-0.2-0.1-0.4-0.3-0.5-0.4c0-0.1,0.1-0.5,0.2-0.6
	c0.2-0.7,0.5-1.5,0-2.2c-0.5-0.7-1.4-0.8-2.1-0.8c-0.2,0-0.5,0-0.6,0c-0.1-0.1-0.2-0.4-0.2-0.6c-0.2-0.6-0.5-1.5-1.4-1.8
	c-0.8-0.3-1.6,0.2-2.2,0.6c-0.2,0.1-0.4,0.3-0.5,0.3c-0.1-0.1-0.3-0.2-0.5-0.3c-0.6-0.4-1.3-0.9-2.2-0.7c-0.9,0.3-1.2,1.1-1.4,1.8
	c-0.1,0.2-0.2,0.4-0.2,0.6c-0.1,0-0.4,0-0.6,0c-0.7,0-1.6,0-2.1,0.7c-0.5,0.7-0.3,1.6-0.1,2.2c0.1,0.2,0.1,0.5,0.1,0.6
	c-0.1,0.1-0.3,0.3-0.5,0.4c-0.5,0.4-1.3,1-1.3,1.9c0,0.9,0.7,1.4,1.2,1.8c0.2,0.1,0.5,0.4,0.5,0.4c0,0.1-0.1,0.5-0.2,0.7
	c-0.2,0.7-0.5,1.5,0,2.2c0.5,0.7,1.4,0.8,2.1,0.8c0.2,0,0.5,0,0.6,0c0.1,0.1,0.2,0.4,0.2,0.6c0.2,0.6,0.5,1.5,1.4,1.8
	c0.8,0.3,1.6-0.2,2.2-0.6c0.2-0.1,0.4-0.3,0.5-0.3c0.1,0.1,0.3,0.2,0.5,0.3c0.5,0.3,1,0.7,1.7,0.7c0.2,0,0.3,0,0.5-0.1
	c0.9-0.3,1.2-1.1,1.4-1.8c0.1-0.2,0.2-0.4,0.2-0.6c0.1,0,0.4,0,0.6,0c0.7,0,1.6,0,2.1-0.7c0.5-0.7,0.3-1.6,0.1-2.2
	c-0.1-0.2-0.1-0.5-0.1-0.6c0.1-0.1,0.3-0.3,0.5-0.4C40.9,20.6,41.7,20,41.7,19.1z M20.6,30.8c-0.2-0.1-0.4-0.2-0.6-0.2
	c-0.1,0-0.3,0-0.4,0.1c-0.3,0.1-0.6,0.3-0.8,0.7c-0.2,0.3-0.2,0.7-0.1,1c0.1,0.3,0.3,0.6,0.7,0.8c0.3,0.2,0.7,0.2,1,0.1
	c0.3-0.1,0.6-0.3,0.8-0.7c0.2-0.3,0.2-0.7,0.1-1C21.2,31.3,20.9,31,20.6,30.8z M26.2,31.8c0.1,0.1,0.2,0.2,0.3,0.3
	c-0.1,0.1-0.2,0.2-0.3,0.3c-0.5,0.3-1,0.7-1.2,1.3c-0.2,0.6,0,1.2,0.1,1.8c0,0.1,0.1,0.3,0.1,0.4c-0.1,0-0.3,0-0.4,0
	c-0.6,0-1.2,0-1.8,0.4c-0.5,0.4-0.7,1-0.9,1.5c0,0.1-0.1,0.3-0.2,0.4c-0.1-0.1-0.3-0.3-0.4-0.3c-0.5-0.3-1-0.9-1.6-0.9c0,0,0,0,0,0
	c-0.6,0-1.2,0.5-1.7,0.8c-0.1,0.1-0.2,0.3-0.4,0.4c-0.1-0.1-0.1-0.3-0.1-0.4c-0.2-0.5-0.4-1.2-0.9-1.6c-0.5-0.4-1.2-0.4-1.7-0.4
	c-0.1,0-0.3,0-0.4,0c0-0.1,0.1-0.3,0.1-0.4c0.2-0.6,0.4-1.2,0.2-1.8s-0.7-1-1.2-1.4c-0.1-0.1-0.2-0.2-0.3-0.3
	c0.1-0.1,0.2-0.2,0.3-0.3c0.5-0.3,1-0.7,1.2-1.3c0.2-0.6,0-1.2-0.1-1.8c0-0.1-0.1-0.3-0.1-0.4c0.1,0,0.3,0,0.4,0
	c0.6,0,1.2,0,1.8-0.4c0.5-0.4,0.7-1,0.9-1.5c0-0.1,0.1-0.3,0.2-0.4c0.1,0.1,0.3,0.3,0.4,0.3c0.5,0.3,1,0.9,1.6,0.9c0,0,0,0,0,0
	c0.6,0,1.2-0.5,1.7-0.8c0.1-0.1,0.2-0.3,0.4-0.4c0.1,0.1,0.1,0.3,0.1,0.4c0.2,0.5,0.4,1.2,0.9,1.6c0.5,0.4,1.2,0.4,1.7,0.4
	c0.1,0,0.3,0,0.4,0c0,0.1-0.1,0.3-0.1,0.4c-0.2,0.6-0.4,1.2-0.2,1.8S25.8,31.5,26.2,31.8z M23.2,31c-0.3-0.9-0.8-1.5-1.6-2
	s-1.7-0.5-2.5-0.2c-0.9,0.3-1.5,0.8-2,1.6c-0.4,0.8-0.5,1.7-0.2,2.5c0.3,0.9,0.8,1.5,1.6,2c0.5,0.3,1,0.4,1.5,0.4c0.3,0,0.7,0,1-0.2
	c0.9-0.3,1.5-0.8,2-1.6C23.4,32.8,23.4,31.9,23.2,31z"/>
</svg>
