<?xml version="1.0" encoding="utf-8"?>
<!-- Generator: Adobe Illustrator 19.0.0, SVG Export Plug-In . SVG Version: 6.00 Build 0)  -->
<svg version="1.1" id="图层_1" xmlns="http://www.w3.org/2000/svg" xmlns:xlink="http://www.w3.org/1999/xlink" x="0px" y="0px"
	 width="40px" height="40px" viewBox="0 0 40 40" style="enable-background:new 0 0 40 40;" xml:space="preserve">
<style type="text/css">
	.st0{fill:#43B02A;}
</style>
<path id="XMLID_5375_" class="st0" d="M20,0C9,0,0,9,0,20s9,20,20,20s20-9,20-20S31,0,20,0z M20,25.9l-3.5,3.5
	c-0.8,0.8-1.8,1.2-2.9,1.2c0,0-0.1,0-0.1,0c-1.1,0-2.1-0.4-2.9-1.2c-0.8-0.8-1.3-1.9-1.2-3c0-1.1,0.5-2.1,1.2-2.9l5.3-5.3
	c0.8-0.8,1.8-1.2,2.9-1.2c1.1,0,2.2,0.4,3,1.2c0.3,0.3,0.3,0.9,0,1.2c-0.3,0.3-0.9,0.3-1.2,0c-0.5-0.5-1.1-0.8-1.8-0.8
	c-0.6,0-1.3,0.3-1.7,0.8l-5.3,5.3c-0.5,0.5-0.7,1.1-0.8,1.7c0,0.7,0.2,1.3,0.8,1.8c0.5,0.5,1.1,0.8,1.8,0.8c0.6,0,1.3-0.3,1.7-0.8
	l3.5-3.5c0.3-0.3,0.9-0.3,1.2,0C20.3,25,20.3,25.6,20,25.9z M29.4,16.5l-5.3,5.3c-0.8,0.8-1.8,1.2-2.9,1.2c0,0-0.1,0-0.1,0
	c-1.1,0-2.1-0.4-2.9-1.2c-0.3-0.3-0.3-0.9,0-1.2c0.3-0.3,0.9-0.3,1.2,0c0.5,0.5,1.1,0.8,1.8,0.8c0.6,0,1.3-0.3,1.7-0.8l5.3-5.3
	c0.5-0.5,0.7-1.1,0.8-1.7c0-0.7-0.2-1.3-0.8-1.8c-0.5-0.5-1.1-0.8-1.8-0.8c-0.6,0-1.3,0.3-1.7,0.8l-3.5,3.5c-0.3,0.3-0.9,0.3-1.2,0
	c-0.3-0.3-0.3-0.9,0-1.2l3.5-3.5c0.8-0.8,1.8-1.2,2.9-1.2c1.1,0,2.2,0.4,3,1.2c0.8,0.8,1.3,1.9,1.2,3C30.6,14.7,30.2,15.7,29.4,16.5
	z"/>
</svg>
