<?xml version="1.0" encoding="utf-8"?>
<!-- Generator: Adobe Illustrator 19.0.0, SVG Export Plug-In . SVG Version: 6.00 Build 0)  -->
<svg version="1.1" id="图层_1" xmlns="http://www.w3.org/2000/svg" xmlns:xlink="http://www.w3.org/1999/xlink" x="0px" y="0px"
	 width="21px" height="21px" viewBox="0 0 21 21" style="enable-background:new 0 0 21 21;" xml:space="preserve">
<style type="text/css">
	.st0{fill:#43B02A;}
</style>
<path id="XMLID_5402_" class="st0" d="M5.1,5.1h10.8c0.3,0,0.6-0.3,0.6-0.6s-0.3-0.6-0.6-0.6h-2c-0.5-1.4-1.8-2.4-3.4-2.4
	c-1.4,0-2.7,0.8-3.3,2.2c0,0,0,0,0,0c0,0.1-0.1,0.2-0.1,0.2h-2c-0.3,0-0.6,0.3-0.6,0.6S4.8,5.1,5.1,5.1z M10.5,2.7
	c0.9,0,1.7,0.5,2.1,1.2H8.4C8.9,3.2,9.6,2.7,10.5,2.7z M15.9,6.3h-0.6H5.7H5.1c-0.3,0-0.6,0.3-0.6,0.6c0,0.3,0.3,0.6,0.6,0.6v11.4
	c0,0.3,0.3,0.6,0.6,0.6h9.6c0.3,0,0.6-0.3,0.6-0.6V7.5c0.3,0,0.6-0.3,0.6-0.6C16.5,6.6,16.2,6.3,15.9,6.3z M14.7,18.3H6.3V7.5h8.4
	V18.3z M7.5,16.5V9.3c0-0.3,0.3-0.6,0.6-0.6c0.3,0,0.6,0.3,0.6,0.6v7.2c0,0.3-0.3,0.6-0.6,0.6C7.8,17.1,7.5,16.8,7.5,16.5z
	 M9.9,16.5V9.3c0-0.3,0.3-0.6,0.6-0.6s0.6,0.3,0.6,0.6v7.2c0,0.3-0.3,0.6-0.6,0.6S9.9,16.8,9.9,16.5z M12.3,16.5V9.3
	c0-0.3,0.3-0.6,0.6-0.6c0.3,0,0.6,0.3,0.6,0.6v7.2c0,0.3-0.3,0.6-0.6,0.6C12.6,17.1,12.3,16.8,12.3,16.5z"/>
</svg>
