<?xml version="1.0" encoding="utf-8"?>
<!-- Generator: Adobe Illustrator 19.0.0, SVG Export Plug-In . SVG Version: 6.00 Build 0)  -->
<svg version="1.1" id="图层_1" xmlns="http://www.w3.org/2000/svg" xmlns:xlink="http://www.w3.org/1999/xlink" x="0px" y="0px"
	 width="40px" height="40px" viewBox="0 0 40 40" style="enable-background:new 0 0 40 40;" xml:space="preserve">
<style type="text/css">
	.st0{fill:#43B02A;}
</style>
<path id="XMLID_5349_" class="st0" d="M17.5,22.5h-3.3v3.3h3.3V22.5z M15.8,25c-0.5,0-0.8-0.4-0.8-0.8c0-0.5,0.4-0.8,0.8-0.8
	s0.8,0.4,0.8,0.8C16.7,24.6,16.3,25,15.8,25z M25.8,14.2h-3.3v3.3h3.3V14.2z M24.2,16.7c-0.5,0-0.8-0.4-0.8-0.8
	c0-0.5,0.4-0.8,0.8-0.8c0.5,0,0.8,0.4,0.8,0.8C25,16.3,24.6,16.7,24.2,16.7z M17.5,14.2h-3.3v3.3h3.3V14.2z M15.8,16.7
	c-0.5,0-0.8-0.4-0.8-0.8c0-0.5,0.4-0.8,0.8-0.8s0.8,0.4,0.8,0.8C16.7,16.3,16.3,16.7,15.8,16.7z M20,0C9,0,0,9,0,20s9,20,20,20
	s20-9,20-20S31,0,20,0z M30.7,30c0,0.5-0.4,0.8-0.8,0.8H10c-0.5,0-0.8-0.4-0.8-0.8V10c0-0.5,0.4-0.8,0.8-0.8h19.9
	c0.5,0,0.8,0.4,0.8,0.8V30z M10.9,29.2h18.2V10.8H10.9V29.2z M27.5,26.7c0,0.5-0.4,0.8-0.8,0.8h-2.5c-0.5,0-0.8-0.4-0.8-0.8
	c0-0.5,0.4-0.8,0.8-0.8h1.7v-1.7c0-0.5,0.4-0.8,0.8-0.8s0.8,0.4,0.8,0.8V26.7z M20.8,13.3c0-0.5,0.4-0.8,0.8-0.8h5
	c0.5,0,0.8,0.4,0.8,0.8v5c0,0.5-0.4,0.8-0.8,0.8h-5c-0.5,0-0.8-0.4-0.8-0.8V13.3z M20.8,21.7c0-0.5,0.4-0.8,0.8-0.8h5
	c0.5,0,0.8,0.4,0.8,0.8c0,0.5-0.4,0.8-0.8,0.8h-4.2v4.2c0,0.5-0.4,0.8-0.8,0.8s-0.8-0.4-0.8-0.8V21.7z M12.5,13.3
	c0-0.5,0.4-0.8,0.8-0.8h5c0.5,0,0.8,0.4,0.8,0.8v5c0,0.5-0.4,0.8-0.8,0.8h-5c-0.5,0-0.8-0.4-0.8-0.8V13.3z M12.5,21.7
	c0-0.5,0.4-0.8,0.8-0.8h5c0.5,0,0.8,0.4,0.8,0.8v5c0,0.5-0.4,0.8-0.8,0.8h-5c-0.5,0-0.8-0.4-0.8-0.8V21.7z"/>
</svg>
