<?xml version="1.0" encoding="utf-8"?>
<!-- Generator: Adobe Illustrator 19.0.0, SVG Export Plug-In . SVG Version: 6.00 Build 0)  -->
<svg version="1.1" id="图层_1" xmlns="http://www.w3.org/2000/svg" xmlns:xlink="http://www.w3.org/1999/xlink" x="0px" y="0px"
	 width="21px" height="21px" viewBox="-287 410.9 21 21" style="enable-background:new -287 410.9 21 21;" xml:space="preserve">
<style type="text/css">
	.st0{fill:#48A735;}
</style>
<path id="XMLID_27_" class="st0" d="M-266.8,416.7c0-0.1,0-0.2-0.1-0.3c0-0.1-0.1-0.2-0.2-0.3l-4.6-4.6c-0.1-0.1-0.2-0.1-0.2-0.2
	c-0.1,0-0.2-0.1-0.3-0.1h-8.5c-0.4,0-0.8,0.3-0.8,0.8v2.3c0,0.4,0.3,0.8,0.8,0.8c0.4,0,0.8-0.3,0.8-0.8v-1.5h6.9v3.8
	c0,0.4,0.3,0.8,0.8,0.8h3.8v12.3h-11.5v-3.1c0-0.4-0.3-0.8-0.8-0.8c-0.4,0-0.8,0.3-0.8,0.8v3.8c0,0.4,0.3,0.8,0.8,0.8h13.1
	c0.4,0,0.8-0.3,0.8-0.8L-266.8,416.7C-266.8,416.7-266.8,416.7-266.8,416.7z M-271.4,416v-2l2,2H-271.4z M-279.2,425.2l3.1,0.8
	c0.1,0,0.1,0,0.2,0c0.2,0,0.4-0.1,0.5-0.2c0.2-0.2,0.3-0.5,0.2-0.7l-0.8-3.1c0-0.1-0.1-0.3-0.2-0.4l-6.9-6.9c-0.3-0.3-0.8-0.3-1.1,0
	l-2.3,2.3c-0.3,0.3-0.3,0.8,0,1.1l6.9,6.9C-279.5,425.1-279.4,425.1-279.2,425.2z M-277.3,423l0.3,1.1l-1.1-0.3L-277.3,423z
	 M-283.7,416.3l5.5,5.5l-1.2,1.2l-5.5-5.5L-283.7,416.3z M-269.8,425.2c0,0.4-0.3,0.8-0.8,0.8h-2.3c-0.4,0-0.8-0.3-0.8-0.8
	c0-0.4,0.3-0.8,0.8-0.8h2.3C-270.2,424.4-269.8,424.8-269.8,425.2z M-269.8,422.1c0,0.4-0.3,0.8-0.8,0.8h-3.1
	c-0.4,0-0.8-0.3-0.8-0.8c0-0.4,0.3-0.8,0.8-0.8h3.1C-270.2,421.3-269.8,421.7-269.8,422.1z"/>
</svg>
