<?xml version="1.0" encoding="utf-8"?>
<!-- Generator: Adobe Illustrator 19.0.0, SVG Export Plug-In . SVG Version: 6.00 Build 0)  -->
<svg version="1.1" id="图层_1" xmlns="http://www.w3.org/2000/svg" xmlns:xlink="http://www.w3.org/1999/xlink" x="0px" y="0px"
	 width="40px" height="40px" viewBox="0 0 40 40" style="enable-background:new 0 0 40 40;" xml:space="preserve">
<style type="text/css">
	.st0{fill:#43B02A;}
</style>
<path id="XMLID_5379_" class="st0" d="M24.2,13.7l2.2,2.2h-2.2V13.7z M17.7,23.5l-0.9,0.9l1.2,0.3L17.7,23.5z M16.7,22.1l-5.9-5.9
	l-1.3,1.3l5.9,5.9L16.7,22.1z M40,20c0,11-9,20-20,20S0,31,0,20S9,0,20,0S40,9,40,20z M7.7,18.1l7.5,7.5c0.1,0.1,0.2,0.2,0.4,0.2
	l3.3,0.8c0.1,0,0.1,0,0.2,0c0.2,0,0.4-0.1,0.6-0.2c0.2-0.2,0.3-0.5,0.2-0.8l-0.8-3.3c0-0.1-0.1-0.3-0.2-0.4l-7.5-7.5
	c-0.3-0.3-0.9-0.3-1.2,0l-2.5,2.5C7.4,17.2,7.4,17.8,7.7,18.1z M29.2,16.7C29.2,16.7,29.2,16.7,29.2,16.7c0-0.1,0-0.2-0.1-0.3
	c0-0.1-0.1-0.2-0.2-0.3l-5-5c-0.1-0.1-0.2-0.1-0.3-0.2c-0.1,0-0.2-0.1-0.3-0.1h-9.2c-0.5,0-0.8,0.4-0.8,0.8v2.5
	c0,0.5,0.4,0.8,0.8,0.8c0.5,0,0.8-0.4,0.8-0.8v-1.7h7.5v4.2c0,0.5,0.4,0.8,0.8,0.8h4.2v13.3H15v-3.3c0-0.5-0.4-0.8-0.8-0.8
	c-0.5,0-0.8,0.4-0.8,0.8v4.2c0,0.5,0.4,0.8,0.8,0.8h14.2c0.5,0,0.8-0.4,0.8-0.8V16.7z M25.8,22.5c0-0.5-0.4-0.8-0.8-0.8h-3.3
	c-0.5,0-0.8,0.4-0.8,0.8c0,0.5,0.4,0.8,0.8,0.8H25C25.5,23.3,25.8,23,25.8,22.5z M25,25h-2.5c-0.5,0-0.8,0.4-0.8,0.8
	c0,0.5,0.4,0.8,0.8,0.8H25c0.5,0,0.8-0.4,0.8-0.8C25.8,25.4,25.5,25,25,25z"/>
</svg>
