<?xml version="1.0" encoding="utf-8"?>
<!-- Generator: Adobe Illustrator 19.2.1, SVG Export Plug-In . SVG Version: 6.00 Build 0)  -->
<svg version="1.0" id="Line_graph" xmlns="http://www.w3.org/2000/svg" xmlns:xlink="http://www.w3.org/1999/xlink" x="0px" y="0px"
	 viewBox="0 0 52 52" enable-background="new 0 0 52 52" xml:space="preserve">
<path d="M26,2C12.7,2,2,12.7,2,26s10.7,24,24,24s24-10.7,24-24S39.3,2,26,2z M40,37H12c-0.6,0-1-0.4-1-1V16c0-0.6,0.4-1,1-1
	s1,0.4,1,1v19h27c0.6,0,1,0.4,1,1S40.6,37,40,37z M40.7,18.7l-11,11c-0.4,0.4-1,0.4-1.4,0L23,24.4l-6.3,6.3C16.5,30.9,16.3,31,16,31
	s-0.5-0.1-0.7-0.3c-0.4-0.4-0.4-1,0-1.4l7-7c0.4-0.4,1-0.4,1.4,0l5.3,5.3l10.3-10.3c0.4-0.4,1-0.4,1.4,0S41.1,18.3,40.7,18.7z"/>
</svg>
