<?xml version="1.0" encoding="utf-8"?>
<!-- Generator: Adobe Illustrator 19.2.1, SVG Export Plug-In . SVG Version: 6.00 Build 0)  -->
<svg version="1.0" id="Plus" xmlns="http://www.w3.org/2000/svg" xmlns:xlink="http://www.w3.org/1999/xlink" x="0px" y="0px"
	 viewBox="0 0 52 52" enable-background="new 0 0 52 52" xml:space="preserve">
<g>
	<path d="M26,2C12.7,2,2,12.7,2,26s10.7,24,24,24s24-10.7,24-24S39.3,2,26,2z M40,27H27v13c0,0.6-0.4,1-1,1s-1-0.4-1-1V27H12
		c-0.6,0-1-0.4-1-1s0.4-1,1-1h13V12c0-0.6,0.4-1,1-1s1,0.4,1,1v13h13c0.6,0,1,0.4,1,1S40.6,27,40,27z"/>
</g>
</svg>
