<?xml version="1.0" encoding="utf-8"?>
<!-- Generator: Adobe Illustrator 19.2.1, SVG Export Plug-In . SVG Version: 6.00 Build 0)  -->
<svg style="fill:#97999b" version="1.0" id="Phone" xmlns="http://www.w3.org/2000/svg" xmlns:xlink="http://www.w3.org/1999/xlink" x="0px" y="0px"
	 viewBox="0 0 52 52" enable-background="new 0 0 52 52" xml:space="preserve">
<path d="M26,2C12.7,2,2,12.7,2,26s10.7,24,24,24s24-10.7,24-24S39.3,2,26,2L26,2z M34.9,39c-0.4,0-0.8,0-1.2-0.2
	c-0.8-0.1-7.6-1.1-13.4-7.2c-6.1-5.8-7-12.6-7.1-13.4c-0.5-2.2,0.3-3,1.1-3.9l0.2-0.3c0.9-1,1.5-1.8,2.5-2.1v0
	c0-0.1,1.1-0.1,2.7,0.7c2.6,1.3,4.3,3.4,4.7,5.8c0,0.3,0,0.6-0.3,0.9l-2.2,2.2c0.3,0.4,0.5,0.8,0.7,1.1c0.7,1.1,1.2,1.9,2.9,3.7
	c1.8,1.8,2.6,2.2,3.7,2.9c0.3,0.2,0.7,0.4,1.1,0.7l2.2-2.2c0.2-0.2,0.5-0.3,0.9-0.3c2.4,0.4,4.5,2,5.8,4.6c0.6,1.2,0.9,2.1,0.7,2.6
	l0,0c-0.3,0.8-1.1,1.7-2.1,2.6l-0.3,0.3C36.9,38.3,36.3,39,34.9,39z M17.6,14.1c-0.4,0.3-1.2,1.1-1.5,1.5l-0.3,0.3
	c-0.7,0.7-0.9,0.9-0.6,2.1c0,0,0,0.1,0,0.1c0,0.1,0.8,6.7,6.6,12.3c5.6,5.9,12.2,6.6,12.3,6.6c0,0,0.1,0,0.1,0
	c1.2,0.3,1.4,0.1,2.1-0.6l0.3-0.3c0.3-0.3,1.2-1.1,1.5-1.5c-0.3-0.9-1.4-4-4.4-4.8l-2.4,2.4c-0.3,0.3-0.9,0.4-1.3,0.1
	c-0.7-0.5-1.2-0.8-1.7-1.1c-1.1-0.7-2.1-1.3-4-3.2c-1.9-1.9-2.5-2.9-3.2-4c-0.3-0.5-0.6-1-1.1-1.7c-0.3-0.4-0.2-0.9,0.1-1.3l2.4-2.4
	C21.6,15.5,18.4,14.3,17.6,14.1z"/>
</svg>
