<svg
 xmlns="http://www.w3.org/2000/svg"
 xmlns:xlink="http://www.w3.org/1999/xlink"
 width="24px" height="24px">
<path fill-rule="evenodd"  fill="rgb(0, 163, 224)"
 d="M22.000,24.000 L2.000,24.000 C0.895,24.000 -0.000,23.105 -0.000,22.000 L-0.000,2.000 C-0.000,0.895 0.895,-0.000 2.000,-0.000 L22.000,-0.000 C23.105,-0.000 24.000,0.895 24.000,2.000 L24.000,22.000 C24.000,23.105 23.105,24.000 22.000,24.000 ZM18.603,13.085 C18.178,12.110 17.589,11.387 17.132,11.230 L17.132,11.041 C17.132,10.664 17.034,10.318 16.837,10.035 L16.837,9.972 C16.837,9.815 16.772,9.626 16.706,9.500 C16.576,6.953 14.843,4.941 12.032,4.941 C9.220,4.941 7.487,6.953 7.324,9.532 C7.226,9.657 7.193,9.815 7.193,10.003 L7.193,10.066 C6.997,10.349 6.899,10.695 6.899,11.072 L6.899,11.261 C6.442,11.418 5.853,12.141 5.428,13.116 C4.872,14.342 4.773,15.537 5.231,15.757 C5.525,15.883 6.016,15.537 6.474,14.908 C6.637,15.600 7.095,16.229 7.716,16.732 C7.062,16.952 6.637,17.329 6.637,17.770 C6.637,18.493 7.814,19.059 9.253,19.059 C10.561,19.059 11.639,18.587 11.835,17.990 L12.163,17.990 C12.358,18.587 13.438,19.059 14.745,19.059 C16.184,19.059 17.361,18.493 17.361,17.770 C17.361,17.361 16.936,16.952 16.282,16.732 C16.903,16.229 17.361,15.600 17.524,14.908 C17.982,15.569 18.472,15.915 18.767,15.757 C19.224,15.537 19.126,14.342 18.603,13.085 Z"/>
</svg>
