<svg  xmlns="http://www.w3.org/2000/svg" xmlns:xlink="http://www.w3.org/1999/xlink" width="24px" height="24px"><path fill-rule="evenodd"  fill="rgb(237, 139, 0)" d="M22.000,24.000 L2.000,24.000 C0.895,24.000 -0.000,23.105 -0.000,22.000 L-0.000,2.000 C-0.000,0.895 0.895,-0.000 2.000,-0.000 L22.000,-0.000 C23.105,-0.000 24.000,0.895 24.000,2.000 L24.000,22.000 C24.000,23.105 23.105,24.000 22.000,24.000 ZM13.474,9.580 C13.474,9.580 11.719,4.941 11.295,4.941 C10.870,4.941 9.115,9.580 9.115,9.580 C9.115,9.580 4.390,9.930 4.240,10.324 C4.089,10.719 7.768,13.936 7.768,13.936 C7.768,13.936 6.681,18.820 6.935,19.035 C7.188,19.249 11.294,16.627 11.294,16.627 C11.294,16.627 15.369,19.340 15.655,19.035 C15.864,18.810 15.300,16.065 14.995,14.677 C14.986,14.633 13.402,14.863 11.646,14.875 C10.087,14.886 8.348,14.775 8.348,14.775 L12.407,11.601 C12.407,11.601 11.146,11.359 10.187,11.268 C8.818,11.138 7.618,11.141 7.768,11.101 C8.005,11.038 9.668,10.874 11.295,10.934 C12.779,10.990 14.247,11.267 14.247,11.267 L10.187,14.307 C10.187,14.307 11.074,14.451 11.810,14.481 C13.212,14.537 14.923,14.497 14.919,14.481 C14.868,14.248 14.822,13.936 14.822,13.936 C14.822,13.936 18.480,10.717 18.350,10.324 C18.219,9.931 13.474,9.580 13.474,9.580 Z"/></svg>