<svg
 xmlns="http://www.w3.org/2000/svg"
 xmlns:xlink="http://www.w3.org/1999/xlink"
 width="23px" height="23px">
<path fill-rule="evenodd"  fill="rgb(218, 41, 28)"
 d="M21.000,23.000 L2.000,23.000 C0.895,23.000 -0.000,22.105 -0.000,21.000 L-0.000,2.000 C-0.000,0.895 0.895,-0.000 2.000,-0.000 L21.000,-0.000 C22.105,-0.000 23.000,0.895 23.000,2.000 L23.000,21.000 C23.000,22.105 22.105,23.000 21.000,23.000 ZM11.663,9.614 C11.663,9.613 11.231,9.801 11.341,9.462 C11.553,8.790 11.521,8.226 11.192,7.901 C10.444,7.163 8.456,7.929 6.753,9.611 C5.476,10.871 4.735,12.206 4.735,13.360 C4.735,15.569 7.605,16.912 10.412,16.912 C14.091,16.912 16.539,14.801 16.539,13.126 C16.539,12.114 15.675,11.539 14.899,11.302 C14.708,11.245 14.578,11.207 14.678,10.960 C14.893,10.423 14.916,9.961 14.681,9.630 C14.243,9.011 13.041,9.044 11.663,9.614 ZM15.493,9.889 C15.418,10.121 15.546,10.369 15.780,10.444 C16.015,10.518 16.266,10.392 16.342,10.160 C16.527,9.594 16.411,8.949 15.978,8.476 C15.545,8.002 14.907,7.822 14.317,7.946 C14.076,7.997 13.923,8.231 13.974,8.469 C14.026,8.706 14.263,8.858 14.504,8.806 L14.504,8.807 C14.791,8.747 15.104,8.834 15.315,9.066 C15.526,9.297 15.584,9.613 15.493,9.889 ZM17.342,7.260 C16.454,6.288 15.143,5.917 13.933,6.171 L13.933,6.171 C13.653,6.230 13.474,6.502 13.534,6.778 C13.594,7.054 13.869,7.230 14.149,7.171 C15.010,6.991 15.942,7.255 16.573,7.945 C17.204,8.636 17.376,9.579 17.105,10.405 C17.017,10.674 17.166,10.962 17.439,11.048 C17.711,11.135 18.004,10.988 18.092,10.720 C18.092,10.719 18.092,10.718 18.092,10.718 C18.471,9.556 18.231,8.232 17.342,7.260 ZM10.397,15.940 C8.157,16.158 6.223,15.158 6.079,13.707 C5.933,12.255 7.631,10.902 9.871,10.683 C12.111,10.465 14.044,11.464 14.190,12.915 C14.335,14.367 12.638,15.721 10.397,15.940 ZM10.621,11.800 C9.555,11.527 8.350,12.051 7.887,12.978 C7.416,13.923 7.872,14.973 8.949,15.316 C10.064,15.671 11.379,15.127 11.836,14.106 C12.287,13.109 11.724,12.082 10.621,11.800 ZM10.134,13.451 C10.000,13.397 9.958,13.249 10.034,13.119 C10.112,12.990 10.279,12.927 10.412,12.979 C10.547,13.028 10.595,13.177 10.521,13.311 C10.442,13.443 10.269,13.507 10.134,13.451 ZM8.777,14.548 C8.433,14.393 8.331,13.997 8.548,13.664 C8.762,13.333 9.210,13.186 9.557,13.329 C9.908,13.477 10.020,13.870 9.807,14.215 C9.591,14.556 9.127,14.705 8.777,14.548 Z"/>
</svg>
