<svg
 xmlns="http://www.w3.org/2000/svg"
 xmlns:xlink="http://www.w3.org/1999/xlink"
 width="24px" height="24px">
<path fill-rule="evenodd"  fill="rgb(67, 176, 42)"
 d="M22.000,24.000 L2.000,24.000 C0.895,24.000 -0.000,23.105 -0.000,22.000 L-0.000,2.000 C-0.000,0.895 0.895,-0.000 2.000,-0.000 L22.000,-0.000 C23.105,-0.000 24.000,0.895 24.000,2.000 L24.000,22.000 C24.000,23.105 23.105,24.000 22.000,24.000 ZM9.748,5.647 C6.720,5.647 4.235,7.677 4.235,10.331 C4.235,11.834 5.050,13.064 6.429,14.039 L5.865,15.718 L7.826,14.723 C8.506,14.918 9.030,15.035 9.748,15.035 C9.904,15.035 10.078,15.035 10.234,15.016 C10.137,14.625 10.078,14.254 10.078,13.844 C10.078,11.444 12.117,9.453 14.757,9.453 C14.912,9.453 15.086,9.473 15.280,9.512 C14.815,7.247 12.427,5.647 9.748,5.647 ZM15.086,9.765 C12.485,9.765 10.427,11.561 10.427,13.786 C10.427,16.011 12.485,17.807 15.086,17.807 C15.649,17.807 16.193,17.631 16.756,17.514 L18.231,18.353 L17.843,16.948 C18.930,16.148 19.765,15.035 19.765,13.786 C19.765,11.561 17.551,9.765 15.086,9.765 ZM16.620,13.063 C16.329,13.063 16.077,12.810 16.077,12.556 C16.077,12.244 16.329,11.990 16.620,11.990 C17.008,11.990 17.300,12.244 17.300,12.556 C17.300,12.810 17.008,13.063 16.620,13.063 ZM13.572,13.063 C13.300,13.063 13.029,12.810 13.029,12.556 C13.029,12.244 13.301,11.990 13.572,11.990 C13.980,11.990 14.271,12.244 14.271,12.556 C14.271,12.810 13.980,13.063 13.572,13.063 ZM11.786,9.355 C11.378,9.355 10.990,9.082 10.990,8.672 C10.990,8.243 11.378,7.989 11.786,7.989 C12.214,7.989 12.485,8.243 12.485,8.672 C12.485,9.082 12.214,9.355 11.786,9.355 ZM7.943,9.355 C7.535,9.355 7.108,9.082 7.108,8.672 C7.108,8.243 7.535,7.989 7.943,7.989 C8.331,7.989 8.642,8.243 8.642,8.672 C8.642,9.082 8.331,9.355 7.943,9.355 Z"/>
</svg>
