<svg
 xmlns="http://www.w3.org/2000/svg"
 xmlns:xlink="http://www.w3.org/1999/xlink"
 width="24px" height="24px">
<path fill-rule="evenodd"  fill="#bbbcbc"
 d="M22.000,24.000 L2.000,24.000 C0.895,24.000 -0.000,23.105 -0.000,22.000 L-0.000,2.000 C-0.000,0.895 0.895,-0.000 2.000,-0.000 L22.000,-0.000 C23.105,-0.000 24.000,0.895 24.000,2.000 L24.000,22.000 C24.000,23.105 23.105,24.000 22.000,24.000 ZM16.991,16.991 C18.019,15.963 18.393,14.977 18.392,14.976 L11.599,15.016 L15.015,18.432 C15.015,18.432 15.963,18.019 16.991,16.991 ZM9.584,18.681 C9.584,18.681 10.546,19.059 12.000,19.059 C13.454,19.059 14.416,18.625 14.416,18.625 L9.584,13.849 L9.584,18.681 ZM7.009,16.991 C8.037,18.019 9.023,18.392 9.024,18.392 L8.984,11.600 L5.568,15.016 C5.568,15.016 5.981,15.963 7.009,16.991 ZM4.941,12.000 C4.941,13.454 5.375,14.415 5.375,14.415 L10.151,9.585 L5.319,9.585 C5.319,9.585 4.941,10.546 4.941,12.000 ZM7.009,7.009 C5.981,8.037 5.607,9.023 5.608,9.023 L12.401,8.984 L8.984,5.568 C8.984,5.568 8.037,5.981 7.009,7.009 ZM14.416,5.319 C14.416,5.319 13.454,4.941 12.000,4.941 C10.546,4.941 9.585,5.375 9.585,5.375 L14.416,10.151 L14.416,5.319 ZM16.991,7.009 C15.963,5.981 14.977,5.607 14.976,5.607 L15.015,12.400 L18.432,8.985 C18.432,8.985 18.019,8.037 16.991,7.009 ZM18.626,9.584 L13.849,14.415 L18.680,14.415 C18.680,14.415 19.059,13.454 19.059,11.999 C19.059,10.546 18.626,9.584 18.626,9.584 Z"/>
</svg>
